<?xml version="1.0" standalone="no"?>
<!DOCTYPE svg PUBLIC "-//W3C//DTD SVG 20010904//EN"
 "http://www.w3.org/TR/2001/REC-SVG-20010904/DTD/svg10.dtd">
<svg version="1.0" xmlns="http://www.w3.org/2000/svg"
 width="2719.000000pt" height="2719.000000pt" viewBox="0 0 2719.000000 2719.000000"
 preserveAspectRatio="xMidYMid meet">
<metadata>
Created by potrace 1.14, written by Peter Selinger 2001-2017
</metadata>
<g transform="translate(0.000000,2719.000000) scale(0.100000,-0.100000)"
fill="#000000" stroke="none">
<path d="M6529 24296 c-2 -2 -31 -6 -64 -10 -196 -19 -438 -108 -650 -240 -27
-17 -51 -34 -53 -38 -2 -5 -8 -8 -14 -8 -27 0 -232 -173 -378 -320 -173 -173
-271 -291 -413 -500 -263 -387 -483 -867 -616 -1345 -17 -60 -35 -123 -40
-140 -10 -32 -50 -203 -58 -245 -2 -14 -10 -52 -18 -85 -7 -33 -16 -80 -20
-105 -3 -25 -8 -52 -10 -60 -2 -8 -7 -35 -10 -60 -4 -25 -10 -65 -15 -90 -5
-25 -11 -72 -15 -105 -4 -33 -8 -71 -11 -85 -2 -14 -6 -50 -9 -80 -3 -30 -8
-68 -10 -85 -2 -16 -7 -68 -10 -115 -4 -47 -8 -98 -10 -115 -24 -213 -24
-1103 0 -1345 1 -19 6 -92 10 -162 3 -71 8 -136 9 -145 2 -10 7 -69 11 -132 3
-62 8 -121 10 -131 2 -10 6 -51 9 -91 3 -41 8 -96 11 -124 11 -104 15 -141 19
-185 3 -25 8 -70 11 -100 3 -30 8 -66 10 -80 2 -14 7 -52 10 -85 3 -33 7 -71
10 -85 2 -14 7 -47 10 -75 3 -27 8 -63 11 -80 2 -16 6 -46 8 -65 9 -70 47
-325 51 -340 2 -8 6 -37 10 -65 3 -27 8 -61 10 -75 3 -14 7 -40 9 -57 3 -18 9
-56 15 -85 6 -29 13 -69 15 -88 3 -19 8 -46 11 -60 3 -14 8 -41 11 -60 3 -19
15 -80 25 -135 11 -55 22 -113 25 -130 3 -16 14 -73 25 -126 24 -116 28 -137
34 -171 5 -25 51 -239 61 -283 3 -11 7 -31 10 -45 16 -84 86 -375 150 -625 41
-159 76 -297 78 -306 8 -32 78 -285 87 -314 5 -16 25 -86 45 -155 19 -69 48
-168 64 -220 63 -207 120 -389 146 -470 15 -47 29 -89 30 -95 4 -19 145 -440
154 -460 5 -11 27 -74 50 -140 63 -179 121 -341 190 -525 35 -91 69 -183 77
-205 20 -57 132 -344 148 -380 7 -16 51 -124 98 -240 90 -224 271 -648 332
-780 20 -44 62 -134 92 -200 112 -243 426 -868 565 -1125 88 -162 101 -187
128 -235 15 -27 39 -71 54 -97 55 -101 80 -144 103 -180 12 -21 23 -40 23 -43
0 -3 38 -71 85 -151 47 -81 85 -148 85 -149 0 -2 22 -40 50 -85 27 -45 50 -83
50 -84 0 -3 217 -364 319 -529 36 -59 71 -116 76 -125 90 -157 627 -980 761
-1167 141 -197 232 -319 321 -430 111 -140 271 -304 372 -383 40 -31 79 -62
85 -68 37 -35 103 -58 166 -59 56 0 70 4 101 27 46 36 84 106 105 194 13 56
16 119 15 329 -1 143 -4 296 -6 340 -12 225 -16 303 -20 330 -6 41 -17 167
-17 185 0 8 -7 67 -14 130 -8 63 -17 138 -20 165 -3 28 -12 95 -21 150 -8 55
-16 114 -18 130 -4 31 -15 97 -20 126 -2 9 -6 34 -9 55 -18 113 -86 493 -101
564 -8 36 -45 223 -50 249 -7 40 -73 359 -125 606 -17 83 -34 161 -36 175 -3
14 -18 88 -34 166 -16 77 -32 154 -35 170 -2 16 -7 43 -10 59 -4 17 -19 98
-36 180 -27 137 -56 287 -75 390 -4 22 -8 45 -9 50 -2 6 -6 27 -9 48 -3 21
-12 71 -20 110 -17 87 -28 147 -31 167 -1 8 -14 83 -29 165 -14 83 -28 164
-31 180 -3 17 -10 53 -15 80 -5 28 -12 66 -15 85 -6 50 -14 97 -25 155 -6 28
-12 67 -15 89 -2 21 -7 46 -9 55 -3 9 -8 36 -11 61 -5 43 -8 62 -21 140 -10
60 -30 185 -39 250 -2 14 -9 57 -15 95 -6 39 -13 86 -16 105 -2 19 -6 49 -9
65 -7 46 -58 404 -81 570 -3 22 -7 54 -10 70 -2 17 -6 48 -9 70 -21 171 -27
214 -30 240 -3 17 -12 89 -20 160 -9 72 -18 141 -20 155 -2 14 -6 52 -10 85
-3 33 -8 71 -10 85 -2 14 -6 52 -10 85 -3 33 -8 76 -10 95 -2 19 -9 82 -15
140 -6 58 -13 123 -16 145 -9 84 -14 132 -19 195 -3 36 -8 76 -10 90 -2 14 -7
61 -10 105 -13 159 -15 182 -30 325 -2 25 -7 79 -10 120 -4 41 -8 91 -10 110
-2 19 -6 78 -9 130 -11 154 -17 232 -21 280 -3 25 -7 86 -10 135 -3 50 -7 126
-10 170 -12 167 -15 213 -20 325 -3 63 -8 142 -10 175 -6 86 -19 404 -30 730
-18 534 -21 1247 -10 1980 12 759 8 1582 -10 1840 -2 28 -7 104 -10 170 -4 66
-8 136 -10 155 -2 19 -6 73 -10 120 -10 121 -21 235 -30 305 -2 17 -9 71 -15
120 -6 50 -13 101 -15 115 -2 14 -6 45 -10 70 -27 187 -37 241 -71 410 -19 96
-42 202 -51 235 -8 33 -16 65 -17 70 -13 61 -24 100 -63 225 -25 80 -51 159
-57 175 -7 17 -28 66 -46 110 -162 390 -403 672 -705 823 -60 30 -235 95 -235
87 0 -2 -15 1 -32 6 -33 10 -47 12 -147 28 -52 8 -285 14 -292 7z m-174 -3480
c28 -13 64 -36 81 -52 53 -49 113 -173 129 -266 4 -18 10 -51 15 -73 5 -22 12
-63 15 -91 3 -28 7 -59 9 -70 2 -11 7 -60 11 -109 4 -50 8 -103 11 -120 5 -39
13 -451 20 -1045 3 -261 7 -515 9 -565 9 -219 16 -376 20 -445 2 -41 6 -129
10 -195 3 -66 8 -140 10 -165 2 -25 7 -92 10 -150 4 -58 8 -125 10 -150 2 -25
6 -81 10 -125 3 -44 8 -100 10 -125 2 -25 7 -79 10 -120 3 -41 8 -93 10 -115
2 -22 7 -71 10 -110 3 -38 8 -86 11 -105 5 -42 13 -125 19 -200 3 -30 6 -64 9
-75 2 -11 7 -56 11 -100 4 -44 9 -87 10 -96 2 -8 6 -42 9 -75 4 -32 11 -97 17
-144 5 -47 12 -103 14 -125 3 -22 8 -58 11 -80 11 -75 13 -90 19 -144 4 -30 8
-61 10 -70 1 -9 6 -41 10 -71 3 -30 8 -66 10 -80 2 -14 6 -45 10 -70 3 -25 8
-56 10 -70 3 -14 7 -42 10 -62 2 -21 6 -53 9 -70 11 -69 35 -225 41 -263 6
-42 43 -271 51 -315 2 -14 7 -41 10 -60 4 -31 44 -257 59 -335 3 -16 8 -46 11
-65 3 -19 12 -66 19 -105 8 -38 17 -86 20 -105 3 -19 8 -46 10 -60 3 -14 7
-36 10 -50 6 -30 24 -126 31 -160 3 -14 16 -81 30 -150 14 -69 27 -134 29
-145 15 -71 58 -279 80 -380 30 -139 33 -150 41 -190 11 -53 94 -416 120 -525
32 -129 34 -139 40 -170 3 -14 12 -52 21 -85 8 -33 16 -67 18 -75 2 -11 108
-429 129 -510 3 -8 9 -33 14 -55 9 -33 31 -119 77 -295 3 -8 16 -58 30 -110
15 -52 33 -120 41 -150 17 -61 62 -221 125 -440 23 -80 45 -158 49 -175 4 -16
26 -93 49 -170 37 -124 126 -457 137 -510 2 -11 9 -45 15 -75 7 -30 13 -64 15
-75 2 -11 10 -60 19 -110 42 -251 -2 -317 -136 -207 -98 80 -168 184 -289 428
-61 121 -110 224 -110 227 0 4 -11 30 -24 59 -22 49 -49 115 -122 303 -70 181
-223 633 -338 1000 -32 99 -66 207 -76 240 -46 144 -73 234 -134 445 -36 124
-70 239 -75 255 -5 17 -24 80 -41 140 -17 61 -39 139 -49 175 -22 75 -90 326
-96 353 -2 10 -7 27 -10 37 -3 10 -8 27 -10 37 -2 10 -18 69 -35 132 -17 63
-32 124 -34 135 -2 12 -16 66 -31 121 -15 55 -31 118 -36 140 -4 22 -24 103
-43 180 -45 182 -123 526 -180 790 -54 253 -66 312 -72 345 -3 14 -20 102 -39
195 -32 161 -60 307 -70 368 -3 15 -7 39 -10 55 -7 37 -64 369 -70 407 -3 17
-8 46 -11 65 -4 19 -8 45 -10 56 -1 12 -5 39 -8 60 -4 22 -11 68 -17 104 -5
36 -12 76 -14 90 -2 14 -11 75 -20 135 -9 61 -18 121 -20 135 -7 46 -13 94
-21 155 -3 33 -8 69 -10 80 -2 11 -7 40 -10 65 -3 25 -7 57 -10 72 -4 27 -12
91 -18 153 -6 55 -17 150 -21 171 -2 11 -6 52 -10 90 -3 38 -8 83 -10 99 -2
17 -7 57 -10 90 -3 33 -8 74 -10 90 -2 17 -7 66 -10 110 -4 44 -9 96 -10 115
-2 19 -7 67 -10 105 -3 39 -8 88 -10 110 -2 22 -7 83 -11 135 -3 52 -8 111
-10 130 -1 19 -6 82 -9 140 -3 58 -8 134 -10 170 -24 339 -38 781 -39 1205 0
299 4 408 18 571 32 345 109 602 217 719 80 87 191 110 294 61z"/>
<path d="M21299 24216 c-2 -2 -56 -7 -120 -10 -64 -4 -129 -9 -145 -11 -16 -1
-67 -6 -114 -10 -116 -8 -126 -11 -121 -26 3 -14 8 -33 56 -214 53 -200 74
-281 79 -305 3 -14 28 -124 56 -245 52 -227 56 -249 65 -300 3 -16 14 -73 25
-125 11 -52 22 -111 25 -130 3 -19 10 -55 15 -80 8 -39 56 -321 75 -445 5 -36
27 -189 41 -290 3 -22 7 -51 9 -65 2 -14 9 -70 15 -125 6 -55 13 -111 15 -125
2 -14 6 -52 10 -85 3 -33 8 -76 10 -95 5 -42 13 -132 20 -220 3 -36 8 -81 10
-100 2 -19 7 -80 10 -135 3 -55 8 -116 10 -135 2 -19 7 -87 10 -150 4 -63 8
-146 10 -185 6 -104 17 -365 21 -490 4 -144 5 -996 0 -1150 -3 -108 -15 -398
-21 -515 -8 -157 -17 -320 -20 -350 -2 -19 -6 -87 -10 -150 -4 -63 -9 -123
-11 -133 -2 -10 -6 -66 -9 -125 -3 -59 -8 -114 -10 -122 -2 -8 -7 -55 -10
-105 -4 -49 -8 -101 -10 -115 -2 -14 -7 -54 -10 -90 -3 -36 -8 -76 -10 -90 -2
-14 -7 -58 -10 -99 -4 -41 -8 -82 -10 -90 -1 -9 -6 -50 -10 -91 -4 -41 -9 -77
-10 -80 -2 -3 -7 -42 -10 -85 -4 -44 -9 -82 -10 -85 -2 -3 -6 -34 -10 -69 -4
-34 -8 -70 -10 -80 -2 -9 -6 -44 -10 -76 -4 -33 -9 -69 -11 -79 -2 -11 -8 -56
-14 -100 -14 -99 -20 -142 -26 -180 -3 -16 -13 -86 -24 -155 -20 -130 -29
-192 -35 -220 -1 -9 -6 -36 -10 -61 -4 -25 -9 -52 -10 -60 -1 -8 -6 -35 -10
-60 -4 -25 -9 -52 -10 -60 -21 -111 -35 -191 -39 -220 -9 -53 -26 -147 -70
-370 -14 -69 -27 -137 -30 -152 -5 -28 -32 -163 -41 -205 -12 -56 -15 -71 -25
-119 -6 -28 -13 -63 -16 -78 -2 -16 -12 -58 -20 -95 -9 -36 -18 -75 -20 -86
-9 -47 -55 -249 -59 -254 -1 -3 -6 -22 -9 -41 -9 -55 -74 -330 -101 -430 -13
-45 -38 -150 -59 -240 -39 -166 -208 -785 -321 -1175 -256 -884 -516 -1670
-720 -2175 -191 -473 -315 -706 -443 -835 -105 -106 -139 -122 -175 -86 -20
19 -22 32 -22 119 1 89 6 142 19 204 3 12 8 34 10 48 12 64 40 187 72 315 20
77 37 147 39 155 7 27 53 191 90 320 75 258 118 413 196 695 75 273 197 729
204 764 2 9 17 70 34 135 17 66 34 133 37 149 2 17 7 33 9 37 2 3 7 20 10 36
7 36 9 44 18 69 3 11 8 31 11 45 2 14 11 52 20 85 14 54 112 471 122 520 2 11
9 44 15 72 5 29 9 54 8 55 -1 2 2 12 8 23 6 11 14 42 17 69 4 27 9 53 12 58 3
4 7 18 9 30 3 13 11 55 19 93 9 39 18 81 20 95 3 14 7 36 10 50 11 50 58 276
62 295 2 11 11 55 20 98 8 42 18 90 20 105 3 15 13 70 24 122 10 52 28 145 39
205 11 61 28 148 37 195 8 47 17 94 19 105 1 11 8 49 14 85 6 36 13 79 16 95
13 76 15 92 20 115 3 14 8 45 11 70 3 25 7 47 9 50 2 3 6 30 10 60 3 30 8 62
10 70 2 8 7 35 10 60 3 25 13 86 21 135 9 50 17 104 19 120 2 17 13 93 25 170
11 77 23 160 26 185 3 25 9 72 14 105 5 33 12 83 15 110 3 28 7 61 10 75 2 14
7 52 11 85 3 33 8 69 10 80 2 11 6 43 9 70 3 28 7 66 9 85 3 19 7 60 11 90 9
80 13 119 20 175 3 28 8 75 10 105 3 30 7 70 9 90 5 34 11 93 21 208 3 31 8
77 10 102 3 25 7 77 10 115 4 39 8 90 10 115 3 25 7 81 10 125 3 44 7 107 10
140 2 33 7 89 9 125 13 165 28 456 41 770 23 576 23 1347 0 1925 -8 190 -15
352 -20 405 -2 30 -7 102 -10 160 -4 58 -8 130 -10 160 -10 127 -15 198 -20
245 -2 28 -7 79 -10 115 -3 36 -8 85 -10 110 -4 42 -7 67 -19 180 -3 25 -8 72
-11 105 -4 33 -8 71 -10 85 -2 14 -7 52 -10 85 -4 33 -8 67 -10 75 -2 8 -7 47
-11 85 -3 39 -8 72 -9 75 -2 3 -6 30 -10 60 -6 57 -9 73 -20 150 -9 63 -15
100 -21 135 -3 17 -7 46 -9 65 -3 19 -6 44 -9 55 -2 11 -7 40 -11 65 -10 68
-14 93 -20 120 -3 14 -8 41 -11 60 -4 19 -8 44 -10 55 -2 11 -7 36 -10 55 -15
90 -108 546 -130 639 -13 57 -27 117 -29 134 -3 17 -8 34 -10 37 -3 4 -7 23
-10 41 -3 19 -22 99 -43 179 -29 111 -41 144 -52 142 -8 -2 -24 -6 -35 -8 -80
-16 -452 -113 -558 -145 -40 -13 -79 -24 -88 -26 -27 -4 -518 -168 -589 -195
-36 -14 -110 -43 -165 -63 -55 -21 -105 -42 -111 -46 -7 -6 1 -65 27 -196 21
-104 41 -201 43 -218 5 -28 29 -157 40 -215 6 -29 23 -132 30 -175 4 -27 30
-180 41 -244 2 -13 7 -45 11 -70 4 -25 8 -53 9 -61 2 -9 6 -43 10 -75 4 -33 9
-69 11 -80 3 -11 7 -36 10 -55 2 -19 7 -46 9 -60 3 -14 7 -47 11 -75 3 -27 7
-61 10 -75 2 -14 6 -50 10 -80 3 -30 7 -66 10 -80 2 -14 6 -54 10 -90 3 -36 8
-72 9 -81 2 -9 6 -40 9 -70 4 -30 9 -70 11 -89 3 -19 7 -60 10 -90 3 -30 8
-77 11 -105 5 -49 9 -99 19 -192 9 -91 20 -229 30 -348 3 -38 7 -92 10 -120 2
-27 7 -93 10 -145 3 -52 8 -117 10 -145 2 -27 7 -99 10 -160 3 -60 8 -141 10
-180 3 -38 7 -135 10 -215 4 -80 8 -183 10 -230 25 -572 25 -1762 0 -2420 -6
-173 -15 -380 -20 -465 -2 -44 -7 -129 -10 -190 -3 -60 -7 -144 -10 -185 -11
-169 -16 -248 -20 -300 -2 -30 -7 -98 -10 -150 -3 -52 -8 -115 -10 -140 -2
-25 -7 -81 -10 -125 -3 -44 -7 -100 -10 -125 -2 -25 -6 -76 -9 -115 -4 -38 -8
-86 -11 -105 -2 -19 -7 -71 -10 -115 -3 -44 -8 -98 -10 -120 -6 -44 -14 -134
-20 -210 -2 -27 -6 -70 -9 -95 -12 -106 -17 -148 -21 -195 -3 -27 -6 -63 -9
-80 -2 -16 -7 -64 -11 -105 -3 -41 -8 -82 -10 -90 -2 -8 -7 -44 -10 -80 -4
-36 -8 -76 -10 -90 -2 -14 -6 -50 -10 -80 -3 -30 -8 -71 -10 -90 -3 -19 -7
-54 -10 -77 -11 -95 -16 -131 -25 -198 -11 -81 -17 -131 -25 -200 -4 -27 -10
-75 -15 -105 -5 -30 -12 -80 -15 -110 -3 -30 -7 -66 -10 -80 -2 -14 -7 -45
-10 -70 -4 -25 -17 -117 -30 -205 -13 -88 -27 -180 -30 -205 -3 -25 -15 -101
-26 -170 -11 -69 -22 -136 -24 -150 -5 -37 -17 -113 -20 -130 -1 -8 -8 -49
-15 -90 -15 -96 -14 -89 -55 -335 -20 -115 -38 -225 -41 -244 -7 -41 -12 -67
-20 -104 -3 -16 -7 -38 -9 -50 -3 -26 -9 -61 -40 -232 -14 -71 -27 -143 -30
-160 -2 -16 -7 -39 -9 -50 -4 -22 -42 -221 -51 -270 -3 -16 -8 -46 -11 -65 -3
-19 -7 -37 -9 -40 -2 -3 -6 -24 -9 -46 -4 -22 -8 -49 -10 -59 -2 -11 -16 -76
-30 -145 -13 -69 -27 -136 -30 -150 -2 -14 -21 -106 -41 -205 -20 -99 -39
-191 -41 -205 -5 -24 -59 -277 -109 -505 -22 -104 -27 -125 -41 -192 -3 -16
-12 -56 -19 -91 -12 -52 -53 -244 -70 -327 -3 -11 -11 -51 -19 -90 -9 -38 -18
-81 -20 -95 -3 -14 -19 -95 -36 -180 -17 -85 -33 -168 -36 -185 -4 -26 -8 -51
-29 -167 -3 -16 -7 -38 -9 -50 -8 -44 -16 -93 -21 -128 -2 -19 -7 -46 -10 -60
-3 -14 -8 -45 -11 -70 -3 -25 -7 -56 -10 -70 -2 -14 -6 -45 -10 -70 -3 -25 -7
-56 -10 -70 -2 -14 -6 -50 -10 -80 -3 -30 -8 -62 -9 -71 -2 -9 -6 -52 -10 -95
-3 -43 -8 -90 -10 -104 -5 -24 -9 -81 -20 -245 -21 -316 -22 -710 -3 -790 56
-226 203 -272 399 -125 139 104 366 326 508 495 168 201 392 520 581 825 46
74 93 151 106 170 26 41 134 217 149 242 6 10 80 131 166 270 129 210 233 380
280 458 64 108 121 204 141 240 14 25 70 124 125 220 164 288 164 287 352 635
274 505 615 1202 812 1659 39 89 76 175 83 191 8 17 37 86 66 155 29 69 58
139 65 155 128 293 625 1602 625 1645 0 6 4 18 10 28 29 50 403 1232 410 1294
0 4 7 26 15 49 9 23 17 51 20 63 2 12 31 120 65 241 86 310 238 926 266 1075
3 14 14 66 25 115 11 50 27 122 34 160 8 39 17 81 20 95 3 14 8 39 10 55 3 17
8 37 10 45 2 8 7 31 10 50 3 19 12 67 20 105 7 39 16 87 19 109 4 21 8 41 10
45 2 3 7 26 10 51 3 25 8 56 11 70 2 13 7 42 10 65 3 22 8 47 10 55 2 8 7 35
10 60 3 25 8 52 10 60 2 8 6 31 9 50 3 19 8 53 11 75 3 22 10 65 15 95 11 65
14 86 35 245 9 66 18 131 20 145 2 14 7 49 10 79 4 30 9 63 11 75 2 11 6 50 9
87 3 36 7 74 9 85 2 10 7 53 11 94 3 41 8 86 10 100 5 33 14 130 20 210 3 36
7 85 10 110 2 25 7 83 11 130 3 47 8 103 9 125 3 36 12 190 20 345 23 445 23
1147 0 1590 -2 41 -6 119 -9 173 -3 54 -7 124 -10 155 -3 31 -8 86 -11 122
-12 156 -23 274 -30 330 -2 19 -7 60 -10 90 -7 61 -12 105 -19 165 -3 22 -8
58 -10 80 -3 22 -8 58 -11 80 -3 22 -8 55 -10 73 -13 86 -42 270 -49 307 -2
11 -9 54 -16 95 -6 41 -16 91 -21 110 -5 20 -11 51 -13 70 -3 19 -9 55 -15 80
-5 25 -12 58 -15 74 -11 63 -29 143 -42 196 -8 30 -17 70 -20 89 -3 18 -24
104 -46 190 -22 86 -41 165 -44 176 -20 101 -218 748 -235 771 -5 5 -26 11
-47 12 -22 2 -49 4 -61 7 -11 2 -62 7 -113 10 -51 4 -111 9 -133 12 -46 5
-791 14 -796 9z"/>
<path d="M24107 23679 c-93 -22 -185 -92 -248 -190 -53 -83 -118 -302 -144
-484 -3 -22 -8 -49 -10 -61 -17 -77 -38 -266 -49 -439 -18 -269 -25 -534 -41
-1645 -9 -645 -17 -997 -31 -1410 -16 -476 -9 -1701 11 -2040 2 -36 7 -108 10
-160 3 -52 8 -122 10 -155 3 -33 7 -94 10 -135 6 -88 14 -181 20 -230 2 -19 7
-64 10 -100 3 -36 8 -81 10 -100 2 -19 7 -62 10 -95 3 -33 8 -67 10 -75 2 -8
6 -42 9 -75 3 -33 8 -69 10 -80 3 -17 7 -50 21 -165 2 -14 6 -43 10 -65 3 -22
8 -51 10 -65 20 -125 46 -290 50 -310 2 -14 6 -43 9 -65 3 -22 11 -74 16 -115
6 -41 13 -95 16 -120 3 -25 7 -56 9 -70 2 -14 7 -52 10 -85 3 -33 8 -76 10
-95 2 -19 7 -64 10 -100 4 -36 8 -81 10 -100 2 -19 6 -78 10 -130 3 -52 8
-115 10 -140 18 -190 24 -741 11 -930 -12 -168 -12 -168 -37 -328 -48 -309
-221 -745 -465 -1168 -245 -427 -710 -1085 -961 -1362 -212 -234 -412 -380
-436 -319 -10 25 12 104 52 194 76 169 94 200 515 896 102 170 186 310 186
312 0 2 26 48 58 102 148 250 399 712 567 1044 76 151 100 206 87 204 -51 -10
-142 -25 -177 -30 -22 -3 -51 -7 -65 -10 -14 -3 -45 -8 -70 -11 -25 -3 -61 -9
-80 -14 -19 -5 -55 -12 -80 -15 -25 -4 -88 -15 -140 -25 -52 -11 -106 -21
-120 -24 -14 -2 -61 -12 -105 -21 -44 -9 -91 -19 -105 -21 -14 -3 -41 -9 -60
-14 -19 -5 -46 -11 -60 -14 -93 -18 -128 -26 -150 -34 -14 -5 -46 -12 -72 -16
-25 -4 -50 -12 -55 -19 -5 -7 -58 -133 -118 -282 -109 -271 -281 -679 -380
-900 -7 -16 -32 -73 -55 -125 -23 -52 -45 -99 -49 -105 -4 -5 -15 -28 -24 -50
-8 -22 -30 -71 -48 -110 -18 -38 -33 -72 -34 -75 -1 -3 -25 -54 -54 -115 -29
-60 -66 -137 -81 -170 -15 -33 -67 -141 -115 -240 -48 -99 -107 -220 -130
-270 -23 -49 -80 -166 -125 -260 -184 -379 -324 -679 -432 -920 -22 -49 -51
-112 -64 -140 -119 -257 -433 -1056 -457 -1166 -27 -124 -15 -169 46 -169 53
0 175 84 283 194 11 11 74 71 139 131 195 181 381 364 935 915 289 289 634
629 765 755 131 127 306 295 389 375 376 363 1197 1191 1361 1374 84 93 210
232 215 236 3 3 48 55 100 115 52 61 97 112 100 115 18 16 195 229 304 363
454 564 753 1040 950 1517 27 63 52 124 57 135 12 27 70 186 75 205 2 8 17 60
34 115 31 99 73 268 85 335 3 19 8 42 10 50 3 8 7 33 10 55 3 22 7 49 9 61 2
12 7 57 11 100 4 43 9 81 10 84 7 12 18 287 18 440 0 223 -18 529 -38 650 -2
14 -7 44 -10 68 -13 102 -16 130 -25 182 -5 30 -12 75 -15 100 -5 42 -8 58
-20 120 -3 14 -7 39 -10 55 -10 72 -19 120 -50 280 -19 94 -36 181 -39 195 -7
36 -42 194 -61 275 -9 39 -18 77 -20 86 -9 42 -119 463 -140 534 -20 67 -67
240 -80 295 -2 8 -15 65 -30 125 -22 93 -42 184 -61 280 -6 31 -35 188 -38
210 -2 11 -7 43 -11 70 -4 28 -9 61 -11 75 -34 227 -49 456 -49 735 0 272 6
348 39 477 38 149 102 225 195 233 70 5 174 -61 242 -155 53 -72 113 -203 134
-290 9 -39 27 -117 31 -135 25 -121 24 -747 -1 -1110 -2 -33 -7 -98 -11 -145
-4 -47 -7 -100 -8 -119 l-1 -33 150 -53 c377 -132 673 -258 1021 -435 105 -54
191 -93 191 -86 0 6 4 54 8 106 4 52 9 122 11 155 6 90 6 456 -1 570 -8 150
-24 330 -30 355 -2 8 -7 44 -10 80 -4 36 -9 74 -11 85 -2 10 -6 37 -10 60 -3
22 -10 63 -16 90 -5 28 -12 64 -14 80 -45 276 -178 727 -316 1075 -119 299
-250 565 -453 918 -149 259 -406 652 -567 867 -267 355 -551 653 -834 876 -95
75 -308 214 -402 262 -151 78 -303 110 -405 86z"/>
<path d="M2948 23555 c-2 -2 -19 -5 -39 -8 -75 -10 -256 -82 -334 -134 -11 -7
-83 -54 -160 -105 -209 -136 -407 -287 -625 -476 -97 -85 -403 -390 -500 -499
-47 -53 -90 -101 -95 -107 -43 -45 -200 -245 -241 -306 -46 -68 -172 -276
-237 -390 -66 -116 -213 -423 -275 -576 -139 -335 -251 -698 -316 -1019 -4
-16 -9 -41 -12 -55 -10 -48 -44 -250 -49 -292 -3 -24 -7 -54 -10 -68 -4 -26
-10 -74 -20 -175 -4 -33 -8 -76 -10 -95 -20 -171 -25 -650 -11 -928 4 -84 9
-160 10 -170 2 -9 7 -60 11 -112 3 -52 8 -97 10 -100 1 -3 6 -37 9 -76 4 -39
9 -82 12 -95 2 -13 6 -40 8 -59 10 -83 29 -204 52 -326 3 -19 45 -225 58 -289
3 -11 7 -33 11 -50 9 -43 75 -304 86 -340 17 -56 80 -270 84 -286 26 -114 254
-721 355 -944 10 -22 39 -87 65 -145 109 -244 304 -622 470 -910 103 -179 149
-255 259 -432 39 -64 275 -425 289 -443 4 -5 38 -55 76 -110 38 -55 91 -130
118 -168 60 -85 411 -554 434 -582 10 -11 47 -58 84 -105 37 -47 74 -94 83
-105 9 -11 44 -54 77 -95 33 -41 62 -77 65 -80 3 -3 39 -45 80 -95 76 -92 290
-346 300 -355 3 -3 36 -41 75 -85 38 -44 72 -82 75 -85 3 -3 20 -23 39 -45 19
-22 57 -65 85 -96 28 -31 67 -73 86 -95 35 -39 237 -260 275 -300 11 -11 81
-85 155 -164 399 -423 1138 -1162 1605 -1605 33 -31 92 -87 130 -124 39 -37
102 -96 140 -131 81 -74 250 -228 275 -250 9 -8 57 -51 106 -95 48 -44 113
-102 144 -130 31 -27 94 -85 141 -127 46 -42 98 -87 114 -99 l30 -23 -25 30
c-14 16 -27 31 -30 34 -3 3 -78 95 -166 205 -88 110 -228 283 -310 386 -82
102 -161 201 -176 220 -15 18 -75 95 -134 169 -615 779 -1168 1525 -1571 2120
-43 63 -81 117 -85 118 -5 2 -8 7 -8 12 0 10 -103 164 -112 168 -5 2 -8 8 -8
13 0 5 -31 55 -69 111 -119 180 -389 610 -471 753 -10 17 -49 83 -89 149 -39
65 -71 121 -71 124 0 2 -15 30 -34 61 -19 31 -43 73 -55 94 -12 20 -29 52 -39
70 -62 110 -208 381 -216 402 -5 15 1 16 52 11 31 -3 95 -8 142 -11 47 -3 96
-8 110 -10 14 -2 63 -7 110 -11 47 -3 88 -8 92 -10 10 -6 209 -5 243 1 252 47
403 248 450 597 16 117 20 336 10 508 -11 189 -22 343 -39 535 -3 28 -8 83
-11 123 -4 41 -8 81 -9 90 -2 9 -7 53 -11 97 -4 44 -9 89 -10 100 -2 11 -6 47
-10 80 -3 33 -8 74 -10 90 -2 17 -7 53 -10 80 -3 28 -7 61 -10 75 -2 14 -7 50
-10 81 -3 31 -7 65 -9 75 -2 11 -7 46 -11 79 -4 32 -8 66 -10 75 -1 8 -6 42
-9 75 -4 33 -9 67 -11 75 -2 8 -6 38 -10 65 -6 46 -61 439 -70 495 -2 14 -7
50 -10 80 -4 30 -9 62 -10 71 -2 9 -7 40 -10 70 -21 156 -36 263 -40 290 -5
25 -29 207 -40 298 -3 23 -7 55 -9 70 -3 14 -7 53 -11 86 -3 33 -7 71 -10 85
-2 14 -7 48 -10 75 -3 28 -7 66 -10 85 -2 19 -7 62 -10 95 -3 33 -8 76 -10 95
-3 19 -7 64 -10 100 -3 36 -7 81 -10 100 -2 19 -6 71 -10 115 -3 44 -8 96 -10
115 -3 19 -7 71 -10 115 -3 44 -8 103 -10 130 -11 132 -20 262 -30 420 -3 55
-8 125 -10 155 -2 30 -6 109 -10 175 -3 66 -8 149 -10 185 -4 68 -13 260 -20
440 -2 58 -7 168 -10 245 -7 193 -14 437 -20 720 -8 397 -21 801 -30 910 -3
28 -7 91 -10 140 -3 50 -7 110 -10 135 -8 97 -16 177 -21 225 -4 28 -7 64 -9
80 -3 33 -15 119 -22 150 -2 11 -6 31 -9 45 -36 189 -155 371 -280 426 -47 20
-174 40 -186 29z m-1262 -3194 c102 -49 167 -182 218 -446 4 -16 9 -41 11 -55
5 -22 20 -114 30 -180 2 -14 6 -47 10 -75 3 -27 7 -66 10 -85 4 -37 10 -101
20 -210 3 -36 8 -83 10 -105 2 -22 6 -74 10 -115 3 -41 8 -97 10 -125 2 -27 7
-81 10 -120 3 -38 8 -88 10 -110 2 -22 7 -71 10 -110 4 -38 8 -80 10 -93 2
-13 7 -53 11 -90 3 -37 8 -74 9 -82 2 -9 6 -43 10 -75 4 -33 9 -67 10 -75 2
-9 6 -43 10 -75 4 -33 9 -67 10 -75 2 -8 6 -44 11 -80 4 -36 8 -67 9 -70 1 -4
9 -60 20 -145 2 -16 13 -101 24 -188 11 -87 23 -179 26 -205 3 -26 7 -60 10
-77 12 -90 19 -206 18 -335 -3 -320 -75 -470 -263 -544 -46 -18 -51 -20 -131
-30 l-46 -7 -12 42 c-7 23 -14 49 -17 58 -2 9 -17 61 -33 116 -46 158 -170
652 -185 740 -3 17 -12 60 -20 96 -8 36 -17 79 -19 95 -3 16 -13 67 -22 114
-9 47 -19 94 -20 105 -25 144 -45 269 -50 305 -7 53 -14 95 -20 130 -2 14 -6
45 -9 70 -3 25 -10 86 -16 135 -7 50 -13 106 -15 125 -2 19 -6 62 -9 95 -3 33
-8 78 -10 100 -32 327 -48 919 -32 1235 11 220 18 316 22 331 3 10 49 35 112
61 125 52 185 59 248 29z"/>
<path d="M10505 22649 c-328 -48 -607 -281 -870 -725 -270 -454 -466 -1107
-590 -1959 -9 -60 -18 -121 -20 -135 -2 -14 -6 -54 -10 -90 -4 -36 -8 -76 -10
-90 -5 -32 -12 -104 -20 -200 -4 -41 -8 -95 -10 -120 -3 -39 -8 -110 -20 -295
-26 -396 -26 -1558 0 -2385 6 -193 16 -444 20 -520 4 -65 12 -223 20 -395 7
-135 17 -314 20 -345 2 -19 7 -91 10 -160 4 -69 9 -143 11 -165 2 -22 6 -78 9
-125 9 -146 22 -303 30 -390 3 -25 7 -79 10 -120 3 -41 7 -95 10 -120 2 -25 7
-79 10 -120 3 -41 8 -93 10 -115 12 -118 15 -155 20 -205 8 -98 25 -274 30
-310 2 -19 7 -64 10 -100 3 -36 8 -81 10 -100 6 -55 15 -131 20 -185 3 -27 7
-66 9 -85 3 -19 7 -60 10 -90 3 -30 8 -71 11 -90 2 -19 7 -64 11 -100 3 -36 8
-72 9 -80 2 -8 6 -44 10 -80 4 -36 9 -73 10 -82 2 -9 7 -48 10 -85 4 -37 9
-77 11 -88 2 -11 6 -42 9 -70 6 -52 13 -112 20 -155 2 -14 7 -49 10 -79 4 -30
8 -61 10 -70 1 -9 6 -43 9 -76 4 -33 9 -71 11 -85 2 -14 7 -43 10 -65 2 -22 9
-71 15 -110 5 -38 12 -88 15 -110 3 -22 7 -53 10 -70 2 -16 7 -52 10 -80 4
-27 8 -57 11 -65 2 -8 6 -38 9 -65 3 -28 10 -75 15 -105 5 -30 12 -75 15 -100
3 -25 10 -72 16 -105 6 -33 13 -78 16 -100 3 -32 25 -171 58 -375 2 -14 9 -56
15 -95 13 -82 10 -62 55 -335 20 -118 38 -226 40 -240 3 -14 16 -88 30 -165
69 -396 68 -389 125 -675 60 -296 98 -479 106 -502 3 -10 8 -30 10 -45 4 -22
72 -315 89 -383 2 -8 14 -53 25 -100 12 -47 23 -92 25 -100 40 -180 226 -829
345 -1206 68 -212 248 -736 294 -854 8 -19 29 -73 47 -120 17 -47 37 -98 44
-115 7 -16 28 -68 46 -115 77 -201 178 -430 284 -645 278 -566 490 -855 759
-1038 258 -175 481 -68 620 298 62 165 134 432 160 600 11 67 25 163 31 205 3
25 8 56 10 70 2 14 6 54 10 90 3 36 8 81 10 100 2 19 7 69 10 110 3 41 8 95
10 120 4 47 15 210 20 320 2 36 7 135 12 220 10 194 10 1359 0 1655 -11 336
-25 800 -32 1060 -8 292 -15 592 -20 795 -3 107 -7 301 -10 430 -13 526 -30
1484 -40 2175 -14 964 -17 1457 -20 3310 -2 1100 -6 2052 -8 2115 -3 63 -8
192 -12 285 -4 94 -8 195 -10 225 -2 30 -7 102 -10 160 -3 58 -8 128 -10 155
-2 28 -6 86 -9 130 -4 44 -8 98 -11 120 -2 22 -7 72 -10 110 -3 39 -8 84 -10
100 -2 17 -7 62 -10 100 -4 39 -8 77 -10 85 -2 8 -7 47 -11 85 -3 39 -8 79
-10 90 -2 11 -7 45 -10 75 -3 30 -7 62 -9 70 -2 8 -7 38 -10 65 -6 45 -66 405
-80 480 -15 79 -35 174 -39 186 -3 8 -7 28 -10 44 -31 186 -150 621 -245 898
-141 413 -383 913 -541 1118 -14 18 -43 55 -64 83 -52 67 -196 211 -268 269
-250 200 -535 299 -763 266z m380 -3695 c114 -54 219 -242 250 -449 47 -314
59 -538 58 -1075 -5 -1690 0 -2401 22 -3165 2 -82 7 -244 10 -360 3 -115 8
-271 10 -345 3 -74 7 -196 10 -270 3 -74 7 -189 10 -255 2 -66 7 -178 10 -250
7 -163 14 -316 20 -420 2 -44 7 -145 10 -225 3 -80 8 -174 10 -210 3 -36 7
-112 10 -170 9 -184 30 -547 41 -710 2 -36 6 -108 9 -160 5 -90 8 -132 20
-310 3 -41 7 -111 10 -155 6 -105 14 -216 20 -290 3 -33 7 -94 10 -135 9 -128
18 -256 30 -410 6 -79 14 -183 20 -275 3 -44 8 -100 10 -125 2 -25 7 -79 10
-120 3 -41 8 -95 10 -120 3 -25 7 -81 10 -125 4 -44 8 -102 10 -130 3 -27 6
-77 9 -110 3 -33 7 -82 10 -110 3 -27 8 -79 11 -115 8 -108 21 -258 30 -355 3
-27 7 -75 9 -105 3 -30 7 -84 10 -120 21 -246 27 -574 15 -719 -19 -225 -80
-292 -179 -199 -88 82 -138 170 -190 328 -47 144 -120 446 -136 559 -2 18 -6
36 -8 40 -3 4 -8 34 -11 66 -4 33 -9 62 -10 65 -2 3 -8 42 -14 86 -7 44 -13
89 -15 100 -2 10 -7 44 -10 75 -4 31 -8 65 -10 75 -3 18 -12 89 -22 184 -3 25
-7 63 -10 85 -11 76 -12 90 -19 150 -3 33 -8 76 -10 95 -11 94 -15 130 -20
185 -4 33 -8 71 -10 85 -2 14 -7 57 -11 95 -3 39 -8 81 -10 95 -1 14 -6 52 -9
85 -3 33 -7 76 -10 95 -2 19 -7 64 -10 100 -3 36 -8 81 -10 100 -4 34 -8 70
-20 190 -3 30 -7 75 -10 100 -3 25 -7 70 -10 100 -3 30 -7 75 -10 100 -11 105
-15 149 -20 210 -3 36 -8 85 -11 110 -2 25 -6 70 -9 100 -2 30 -7 80 -10 110
-2 30 -7 84 -10 120 -3 36 -8 81 -10 100 -2 19 -7 73 -10 120 -3 47 -8 101
-10 120 -2 19 -7 71 -11 115 -3 44 -8 98 -10 120 -1 22 -6 81 -9 130 -4 50 -8
106 -10 125 -2 19 -6 76 -10 125 -4 50 -8 108 -10 130 -2 22 -6 81 -10 130 -3
50 -8 113 -10 140 -3 28 -7 93 -10 145 -3 52 -7 118 -10 145 -2 28 -7 93 -10
145 -6 94 -10 158 -20 315 -6 95 -14 227 -20 345 -10 183 -14 249 -20 357 -4
62 -8 150 -10 195 -9 220 -16 371 -20 458 -10 233 -24 607 -30 825 -22 834
-25 1075 -25 1835 0 835 4 982 36 1310 5 53 40 295 48 335 73 359 176 503 311
439z"/>
<path d="M14503 21105 c-92 -69 -175 -131 -183 -138 -40 -33 -256 -180 -316
-215 -139 -81 -161 -86 -384 -86 -163 -1 -225 4 -287 23 l-33 10 -1 -117 c0
-64 -2 -245 -4 -402 -5 -410 -16 -1637 -21 -2400 -5 -925 -5 -5280 1 -6285 6
-1105 14 -2253 20 -2910 18 -1913 32 -3259 50 -4620 12 -853 14 -1000 14
-1027 1 -25 5 -27 54 -32 114 -13 151 -12 180 2 19 9 37 11 55 6 15 -4 72 -8
127 -7 168 2 345 66 548 199 56 37 104 70 107 73 3 4 35 28 73 54 169 120 846
682 849 706 1 9 2 23 3 31 1 8 5 38 9 65 12 82 16 112 41 327 3 24 8 57 10 73
3 17 7 55 10 85 3 30 8 65 11 78 2 12 7 47 10 76 2 29 6 62 8 72 2 11 7 48 11
84 3 36 9 79 12 95 3 17 6 44 8 60 1 17 5 55 9 85 4 30 9 72 11 93 3 20 7 55
10 77 3 22 7 58 10 80 3 22 7 58 10 80 3 22 7 57 10 78 2 20 9 78 15 127 10
90 14 120 25 205 9 67 13 109 20 170 3 30 8 66 10 80 2 14 7 54 10 90 4 36 8
76 10 90 2 14 9 66 15 115 6 50 12 106 15 125 2 19 7 60 10 90 3 30 8 72 11
93 4 23 2 37 -5 37 -6 0 -11 -3 -11 -8 0 -4 -16 -16 -35 -26 -19 -10 -42 -26
-52 -35 -10 -9 -56 -43 -103 -77 -47 -33 -204 -146 -350 -251 -220 -158 -543
-381 -586 -406 -8 -4 -10 6 -8 31 3 36 13 236 19 382 3 67 7 151 20 405 2 44
7 136 10 205 3 69 8 166 10 215 3 50 7 146 10 215 6 139 12 260 20 425 3 61 7
157 10 215 6 144 15 345 20 465 2 55 7 165 10 245 3 80 8 197 10 260 2 63 6
176 9 250 3 74 8 200 11 280 3 80 7 197 10 260 4 108 9 243 20 595 2 83 7 222
10 310 13 405 16 501 20 660 12 474 15 596 20 785 32 1410 39 2021 39 3595 0
1254 -5 1872 -19 2525 -13 593 -16 727 -20 835 -3 66 -7 210 -11 320 -12 412
-11 393 -29 830 -4 90 -8 179 -20 455 -7 162 -17 365 -20 395 -2 17 -3 63 -4
103 -1 39 -5 72 -11 72 -5 0 -85 -56 -177 -125z"/>
<path d="M18170 17861 c-69 -31 -143 -65 -165 -75 -77 -35 -721 -356 -810
-404 -235 -126 -274 -147 -335 -181 -36 -20 -76 -42 -90 -49 -65 -34 -60 14
-65 -573 -2 -294 -7 -637 -10 -764 -9 -420 -23 -902 -30 -1070 -2 -60 -7 -180
-11 -265 -3 -85 -7 -189 -9 -230 -7 -186 -17 -388 -20 -417 -2 -18 -1 -33 1
-33 5 0 69 34 94 50 14 9 109 61 235 130 33 18 83 45 110 60 234 128 722 377
1003 511 85 41 92 46 93 74 1 16 2 41 4 55 1 14 5 63 9 110 3 47 8 112 11 145
5 63 12 162 20 280 3 39 7 99 10 135 3 36 7 110 10 165 3 55 8 129 10 165 3
36 7 112 10 170 3 58 7 148 10 200 10 208 15 302 20 450 4 85 8 200 10 255 14
326 27 1165 18 1164 -5 0 -64 -26 -133 -58z"/>
<path d="M17525 9943 c-43 -23 -541 -314 -660 -386 -292 -176 -592 -361 -603
-372 -14 -13 -18 -26 -26 -115 -4 -36 -9 -76 -11 -90 -2 -14 -7 -54 -10 -90
-3 -36 -8 -76 -10 -90 -5 -24 -9 -55 -20 -165 -3 -27 -8 -66 -10 -85 -3 -19
-7 -57 -10 -85 -3 -27 -8 -67 -10 -87 -3 -21 -7 -55 -10 -75 -2 -21 -14 -114
-25 -208 -11 -93 -22 -181 -25 -195 -2 -14 -7 -54 -10 -90 -4 -36 -9 -74 -11
-85 -2 -11 -6 -40 -9 -65 -3 -25 -10 -81 -16 -125 -6 -44 -12 -96 -14 -115 -2
-19 -6 -48 -9 -65 -3 -16 -8 -57 -12 -89 -3 -33 -7 -67 -9 -75 -2 -9 -6 -45
-10 -81 -3 -36 -8 -72 -10 -80 -2 -8 -7 -40 -10 -70 -3 -30 -8 -62 -10 -70 -2
-8 -7 -44 -10 -80 -4 -36 -9 -67 -10 -70 -2 -3 -7 -37 -10 -75 -4 -38 -9 -78
-11 -88 -2 -11 -6 -45 -9 -76 -4 -31 -8 -63 -10 -71 -2 -8 -7 -37 -11 -64 -5
-39 -3 -47 8 -40 7 4 105 73 218 153 243 172 506 355 610 425 41 28 77 54 80
57 3 3 47 34 98 68 50 35 92 64 92 65 0 1 9 45 20 97 11 52 23 108 26 124 3
17 12 59 20 95 8 36 17 80 20 99 3 18 7 41 9 50 2 9 16 72 30 141 14 69 28
134 31 145 2 11 7 34 10 50 3 17 16 82 29 145 13 63 26 132 29 154 4 21 8 41
10 45 2 3 7 23 10 43 3 21 10 57 15 80 6 24 12 57 15 73 3 17 8 41 11 55 3 14
10 52 16 85 13 69 13 70 39 200 5 28 12 61 14 75 3 14 20 108 40 210 19 102
38 199 40 215 3 17 8 41 11 55 3 14 9 50 15 80 5 30 12 69 15 85 23 121 83
460 81 462 0 1 -14 -6 -31 -14z"/>
</g>
</svg>
